<svg xmlns="http://www.w3.org/2000/svg" width="356.89" height="356.89" viewBox="0 0 356.89 147.02">
    <defs>
        <style>.a{fill:#05000a;}.b{fill:#5933cc;}.c{fill:#17e54b;}</style>
    </defs>
    <path class="a"
          d="M9.06,111.85H0V85H9.06a14.26,14.26,0,0,1,10.17,3.71,12.27,12.27,0,0,1,3.95,9.37,13.44,13.44,0,0,1-3.83,10Q15.53,111.85,9.06,111.85ZM8.9,89.2H5.31v18.46H9q4.37,0,6.63-2.61a10.32,10.32,0,0,0,2.27-7,8.81,8.81,0,0,0-2.41-6.36A8.73,8.73,0,0,0,8.9,89.2Z"/>
    <path class="a"
          d="M32,111.85H26.6L36,85h6.72l9.39,26.88H46.5l-2-6.1H34Zm3.71-11.37-.37,1.16H43.2l-.37-1.2c-.93-2.87-1.7-5.28-2.29-7.23s-.95-3.19-1.09-3.69l-.16-.8Q38.92,90.72,35.75,100.48Z"/>
    <path class="a" d="M74.13,89.12h-7v22.73H61.86V89.12h-7V85H74.13Z"/>
    <path class="a"
          d="M82.28,111.85H76.85L86.24,85H93l9.39,26.88h-5.6l-2-6.1H84.26ZM86,100.48l-.37,1.16h7.82l-.37-1.2q-1.39-4.31-2.28-7.23c-.59-2-1-3.19-1.09-3.69l-.17-.8Q89.16,90.72,86,100.48Z"/>
    <path class="a"
          d="M134.38,104.31a7,7,0,0,1-2.66,5.72,10.77,10.77,0,0,1-7,2.14,15.8,15.8,0,0,1-7.78-1.72v-5.14a13.25,13.25,0,0,0,7.74,2.47,4.83,4.83,0,0,0,3-.9,2.89,2.89,0,0,0,1.15-2.41,2.78,2.78,0,0,0-.29-1.27,3.17,3.17,0,0,0-1.18-1.12c-.59-.37-1-.64-1.36-.8s-1-.45-1.95-.88c-.28-.13-.48-.22-.62-.27-1-.46-1.84-.86-2.47-1.22A15,15,0,0,1,119,97.46a5.94,5.94,0,0,1-1.67-2.2,7.24,7.24,0,0,1-.55-2.91,6.67,6.67,0,0,1,2.61-5.5,10.86,10.86,0,0,1,6.94-2.07,16,16,0,0,1,6.76,1.31V91a12.87,12.87,0,0,0-6.59-1.79,4.85,4.85,0,0,0-3,.83,2.64,2.64,0,0,0-.59,3.68,2.44,2.44,0,0,0,.67.65,20.61,20.61,0,0,0,3.52,1.9c1.1.47,2,.89,2.68,1.25A15.18,15.18,0,0,1,132,99a6.05,6.05,0,0,1,1.81,2.29A7.4,7.4,0,0,1,134.38,104.31Z"/>
    <path class="a"
          d="M159.75,110.57a13.49,13.49,0,0,1-7.17,1.6,14.31,14.31,0,0,1-10.19-3.77,13.08,13.08,0,0,1-4-10,13.24,13.24,0,0,1,4-10,14.12,14.12,0,0,1,10.23-3.85,14.4,14.4,0,0,1,7.13,1.48V91a14,14,0,0,0-6.92-1.75,8.62,8.62,0,0,0-6.32,2.49,9.15,9.15,0,0,0,6.61,15.81,11.1,11.1,0,0,0,6.67-2Z"/>
    <path class="a" d="M170.62,111.85h-5.19V85h5.19Z"/>
    <path class="a" d="M193.8,111.85H177.25V85h16.39v4.11H182.48v7.3h9.93v4.06h-9.93v7.3h11.33Z"/>
    <path class="a"
          d="M204.72,111.85h-5.19V85h5.89l6.67,11.21q1.65,2.75,2.94,5.12c.86,1.58,1.45,2.71,1.75,3.37l.46,1q-.33-3.32-.33-9.49V85h5.23v26.88h-5.93l-6.76-11.17q-1.6-2.62-2.9-5c-.87-1.61-1.46-2.77-1.79-3.49l-.5-1.12a83.45,83.45,0,0,1,.46,9.61Z"/>
    <path class="a"
          d="M248.66,110.57a13.45,13.45,0,0,1-7.16,1.6,14.33,14.33,0,0,1-10.2-3.77,13.07,13.07,0,0,1-4-10,13.23,13.23,0,0,1,4-10,14.13,14.13,0,0,1,10.24-3.85,14.36,14.36,0,0,1,7.12,1.48V91a13.94,13.94,0,0,0-6.92-1.75,8.62,8.62,0,0,0-6.32,2.49A9.15,9.15,0,0,0,242,107.54a11.1,11.1,0,0,0,6.67-2Z"/>
    <path class="a" d="M270.57,111.85H254V85H270.4v4.11H259.24v7.3h9.93v4.06h-9.93v7.3h11.33Z"/>
    <path class="b"
          d="M355.62,65.22a2.52,2.52,0,0,0-1.47-.34l-12.69-22a.83.83,0,0,0,.11-.15,2.55,2.55,0,0,0-4.34-2.68s-.05.09-.07.13-.05.12-.08.17H311.7a3.37,3.37,0,0,0-.19-.32l5.2-9a2.55,2.55,0,0,0,.38-5.08,2.41,2.41,0,0,0-.38,0L304,4a.83.83,0,0,0,.11-.15,2.55,2.55,0,0,0-4.41-2.55c0,.06,0,.12-.08.17H274.25a2.55,2.55,0,1,0-4.59,2.21c.06.11.12.22.19.33l-5.2,9a2.53,2.53,0,0,0-2.72,2.33,2.5,2.5,0,0,0,.43,1.63l-5.2,9a2.52,2.52,0,0,0-2.72,2.33,2.48,2.48,0,0,0,.43,1.63l-5.2,9a2.55,2.55,0,1,0-.38,5.08h.38l12.69,22-.1.15a2.55,2.55,0,1,0,4.34,2.67l.07-.12.08-.17h25.38a2.07,2.07,0,0,0,.19.32l-5.2,9a2.55,2.55,0,0,0-.38,5.08,2.41,2.41,0,0,0,.38,0l12.69,22s-.08.09-.11.15a2.55,2.55,0,0,0,4.42,2.55c0-.06,0-.11.07-.17h25.38a2.55,2.55,0,0,0,4.6-2.19,2.33,2.33,0,0,0-.2-.34l5.2-9a2.53,2.53,0,0,0,2.73-2.32,2.58,2.58,0,0,0-.44-1.64l5.2-9a2.53,2.53,0,0,0,2.73-2.33A2.57,2.57,0,0,0,349,79l5.2-9a2.54,2.54,0,0,0,1.46-4.74Zm-55-60.45a2.56,2.56,0,0,0,1.46.33l12.69,22-.11.15a2.55,2.55,0,0,0,.11,2.7l-5.2,9h-.38L296.52,17l.11-.15a2.55,2.55,0,0,0-4.42-2.55c0,.05,0,.11-.07.17H266.76a2.46,2.46,0,0,0-.19-.32l5.2-9a2.52,2.52,0,0,0,2.39-1.26c0-.05,0-.11.08-.16h25.38A2.58,2.58,0,0,0,300.64,4.77ZM322.28,66l-.11.15a2.55,2.55,0,0,0,4.35,2.67l.07-.12a1.22,1.22,0,0,0,.07-.17h12.06l6,10.44c0,.06-.08.1-.11.15s-.05.12-.07.17H319.19a2.55,2.55,0,0,0-2.49-1.43L304,55.88l.11-.15c0-.06.05-.12.08-.17h12.05Zm-3.47-10.44h12.42l6.22,10.76H326.68a2.55,2.55,0,0,0-2.49-1.44Zm20.74,35.28a2.53,2.53,0,0,0-2.4,1.26c0,.05,0,.11-.07.16H311.7a2.55,2.55,0,0,0-2.49-1.43l-12.69-22,.11-.15a2.51,2.51,0,0,0-.11-2.7l5.21-9h.37l12.69,22a.83.83,0,0,1-.11.15A2.55,2.55,0,1,0,319,81.79a.75.75,0,0,1,.07-.12.87.87,0,0,0,.07-.17h25.38a1.73,1.73,0,0,0,.2.32Zm-65.3-37.5a2.55,2.55,0,0,0-2.49-1.43l-5.38-9.33h10.76A2.55,2.55,0,0,0,279.63,44L285,53.34Zm7.29-10.44a.83.83,0,0,0,.11-.15,2.55,2.55,0,0,0-4.34-2.68l-.07.13c0,.06-.05.12-.08.17H265.1l-6-10.44.11-.15a2.53,2.53,0,0,0-.11-2.7l5.21-9a2.56,2.56,0,0,0,2.39-1.26c0-.06.05-.12.08-.17h25.38a2.54,2.54,0,0,0,2.48,1.43l12.69,22a.83.83,0,0,1-.11.15,2.57,2.57,0,0,0,.11,2.71l-5.21,9a2.52,2.52,0,0,0-2.39,1.26,1.11,1.11,0,0,0-.07.16H287.57Zm-29.77-2.53a2.07,2.07,0,0,0-.19-.32l5.21-9h.37l5.38,9.32Zm47.85,15.19a2.07,2.07,0,0,0,.19.32l-5.21,9h-.37l-5.38-9.32Zm4.59-2.22L304,53l5.2-9a2.29,2.29,0,0,0,.37,0L315,53.34Zm-12,12.81s0,.11-.07.17H266.76a2.55,2.55,0,0,0-2.49-1.44l-12.69-22a.83.83,0,0,0,.11-.15s.05-.11.08-.17h12l6,10.45-.11.15a2.55,2.55,0,0,0,4.35,2.67l.07-.12c0-.06,0-.12.07-.17h12.06l6,10.44-.11.15Zm2,3.81h.37L307.3,92l-.11.15a2.55,2.55,0,1,0,4.34,2.68l.08-.13c0-.06.05-.12.07-.17h25.38a2.14,2.14,0,0,0,.2.32l-5.21,9a2.54,2.54,0,0,0-2.39,1.26c0,.05-.05.11-.08.17H304.2a2.53,2.53,0,0,0-2.48-1.44L289,81.82s.07-.09.1-.15A2.53,2.53,0,0,0,289,79Zm52.8,7.9a2.41,2.41,0,0,0-.38,0l-5.38-9.33h10.77a2.07,2.07,0,0,0,.19.32Zm5.1-11.71a.89.89,0,0,0-.08.17H340l-7.49-13h-15l-6-10.44a.83.83,0,0,0,.11-.15s.05-.11.08-.17h25.38A2.53,2.53,0,0,0,339.55,44l12.69,22-.1.15Z"/>
    <path class="c"
          d="M135.13,139.13a7,7,0,0,1-2.66,5.72,10.81,10.81,0,0,1-7,2.13,15.93,15.93,0,0,1-7.78-1.71v-5.14a13.25,13.25,0,0,0,7.74,2.47,4.83,4.83,0,0,0,3-.9,2.92,2.92,0,0,0,1.15-2.41,2.73,2.73,0,0,0-.29-1.28,3.19,3.19,0,0,0-1.17-1.11c-.59-.37-1-.64-1.36-.8s-1-.45-2-.88l-.62-.28c-1-.45-1.84-.85-2.47-1.21a15.38,15.38,0,0,1-2.06-1.46,5.78,5.78,0,0,1-1.66-2.19,7.09,7.09,0,0,1-.56-2.91,6.66,6.66,0,0,1,2.61-5.5,10.88,10.88,0,0,1,6.94-2.07,16,16,0,0,1,6.76,1.31v4.87a12.85,12.85,0,0,0-6.59-1.79,4.87,4.87,0,0,0-3,.83,2.63,2.63,0,0,0,.09,4.33A19.21,19.21,0,0,0,127.8,131c1.09.48,2,.9,2.67,1.26a14.87,14.87,0,0,1,2.25,1.49,6.08,6.08,0,0,1,1.81,2.3A7.37,7.37,0,0,1,135.13,139.13Z"/>
    <path class="c"
          d="M161.78,136.34q0,5.22-2.91,7.95t-8,2.73a11.2,11.2,0,0,1-7.88-2.69q-3-2.69-3-7.71V119.79h5.19v16.79c0,2,.52,3.53,1.57,4.44a6,6,0,0,0,4.08,1.38c3.78,0,5.68-2,5.68-6V119.79h5.19Z"/>
    <path class="c"
          d="M172.61,146.67h-5.19l2.22-26.88h5.93l3.79,9.77q1,2.48,1.86,4.92c.57,1.64,1,2.85,1.23,3.65l.37,1.24q1.27-4.16,3.54-9.81l3.87-9.77h5.93l2.72,26.87h-5.19l-1-10.49-.75-9.41q-1.47,4.11-3.54,9.41l-3.87,10.09H181l-3.79-10.09L174,126.88c0,1.31-.18,4.4-.54,9.29Z"/>
    <path class="c"
          d="M209.38,146.67h-5.19l2.23-26.88h5.93l3.79,9.77c.66,1.65,1.27,3.29,1.85,4.92s1,2.85,1.24,3.65l.37,1.24q1.28-4.16,3.54-9.81l3.87-9.77h5.93l2.72,26.87h-5.19l-1-10.49-.74-9.41q-1.49,4.11-3.54,9.41l-3.87,10.09h-3.55L214,136.17l-3.26-9.29c0,1.31-.18,4.4-.53,9.29Z"/>
    <path class="c" d="M247,146.67h-5.19V119.79H247Z"/>
    <path class="c" d="M271.11,123.94h-7v22.73h-5.23V123.94h-7v-4.15h19.32Z"/>
    <path class="c"
          d="M350.73,65.22a2.54,2.54,0,0,0-1.47-.34l-12.69-22a.83.83,0,0,0,.11-.15,2.55,2.55,0,0,0-4.34-2.68s0,.09-.07.13,0,.12-.08.17H306.81a3.37,3.37,0,0,0-.19-.32l5.2-9a2.55,2.55,0,1,0,.37-5.08,2.29,2.29,0,0,0-.37,0L299.13,4s.07-.09.1-.15a2.55,2.55,0,0,0-4.41-2.55c0,.06-.05.12-.08.17H269.36a2.54,2.54,0,0,0-4.59,2.19A1.75,1.75,0,0,0,265,4l-5.22,9a2.53,2.53,0,0,0-2.28,4l-5.21,9a2.53,2.53,0,0,0-2.72,2.33,2.49,2.49,0,0,0,.44,1.63l-5.21,9a2.55,2.55,0,1,0-.38,5.08h.39l12.69,22-.11.15a2.55,2.55,0,1,0,4.34,2.67.75.75,0,0,0,.07-.12,1.3,1.3,0,0,0,.08-.17h25.38a3.37,3.37,0,0,0,.19.32l-5.2,9a2.55,2.55,0,1,0-.37,5.08,2.29,2.29,0,0,0,.37,0l12.69,22s-.07.09-.1.15a2.55,2.55,0,0,0,4.41,2.55l.08-.17h25.38a2.55,2.55,0,1,0,4.59-2.2,2.23,2.23,0,0,0-.2-.33l5.21-9a2.53,2.53,0,0,0,2.28-4l5.21-9a2.53,2.53,0,0,0,2.72-2.33,2.56,2.56,0,0,0-.43-1.63l5.2-9a2.54,2.54,0,0,0,1.46-4.74Zm-55-60.45a2.56,2.56,0,0,0,1.46.33l12.69,22-.11.15a2.55,2.55,0,0,0,.11,2.7l-5.2,9h-.38L291.63,17l.11-.15a2.55,2.55,0,0,0-4.42-2.55.87.87,0,0,0-.07.17H261.86a1.69,1.69,0,0,0-.19-.32l5.21-9a2.52,2.52,0,0,0,2.39-1.26,1.11,1.11,0,0,0,.07-.16h25.39A2.52,2.52,0,0,0,295.75,4.77ZM317.39,66l-.11.15a2.55,2.55,0,0,0,4.35,2.67.75.75,0,0,1,.07-.12,1.22,1.22,0,0,0,.07-.17h12.06l6,10.44-.11.15c0,.06-.05.12-.07.17H314.3a2.55,2.55,0,0,0-2.49-1.43l-12.69-22,.11-.15c0-.06,0-.12.08-.17h12.05Zm-3.47-10.44h12.42l6.21,10.76H321.79a2.55,2.55,0,0,0-2.49-1.44Zm20.74,35.28a2.53,2.53,0,0,0-2.4,1.26c0,.05,0,.11-.07.16H306.81a2.55,2.55,0,0,0-2.49-1.43l-12.69-22,.11-.15a2.53,2.53,0,0,0-.11-2.7l5.21-9h.37L309.9,79c0,.06-.08.1-.11.15a2.55,2.55,0,1,0,4.35,2.67.75.75,0,0,1,.07-.12.87.87,0,0,0,.07-.17h25.38a1.73,1.73,0,0,0,.2.32Zm-65.31-37.5a2.54,2.54,0,0,0-2.48-1.43l-5.38-9.33h10.76A2.55,2.55,0,0,0,274.74,44l5.38,9.32Zm7.3-10.44s.08-.09.11-.15a2.55,2.55,0,0,0-4.37-2.63.56.56,0,0,1-.05.08c0,.06,0,.12-.07.17H260.21l-6-10.44.11-.15a2.55,2.55,0,0,0-.11-2.7l5.2-9a2.56,2.56,0,0,0,2.4-1.26c0-.06.05-.12.07-.17h25.38a2.55,2.55,0,0,0,2.49,1.43l12.69,22c0,.06-.08.1-.11.15a2.57,2.57,0,0,0,.11,2.71l-5.21,9a2.52,2.52,0,0,0-2.39,1.26,1.11,1.11,0,0,0-.07.16H282.68Zm-29.77-2.53a2.07,2.07,0,0,0-.19-.32l5.21-9h.37l5.38,9.32Zm47.85,15.19a1.5,1.5,0,0,0,.19.32l-5.21,9h-.37L284,55.56Zm4.59-2.22a2.8,2.8,0,0,0-.2-.32l5.21-9a2.29,2.29,0,0,0,.37,0l5.39,9.32Zm-12,12.81s-.05.11-.08.17H261.86a2.53,2.53,0,0,0-2.48-1.44l-12.69-22s.08-.09.11-.15a.87.87,0,0,0,.07-.17h12.06L265,53a.83.83,0,0,0-.11.15,2.55,2.55,0,0,0,4.41,2.55c0-.06.05-.12.08-.17H281.4l6,10.44Zm2,3.81h.38l12.69,22a.83.83,0,0,0-.11.15,2.55,2.55,0,1,0,4.34,2.68s.05-.09.07-.13.05-.12.08-.17h25.38a3.37,3.37,0,0,0,.19.32l-5.19,9a2.56,2.56,0,0,0-2.4,1.26c0,.06,0,.12-.07.17H299.32a2.55,2.55,0,0,0-2.49-1.43l-12.69-22s.08-.09.11-.14a2.57,2.57,0,0,0-.11-2.71Zm52.8,7.9a2.29,2.29,0,0,0-.37,0l-5.38-9.33h10.76a2.14,2.14,0,0,0,.2.32Zm5.1-11.71a.87.87,0,0,0-.07.17H335.11l-7.49-13h-15l-6-10.44a.83.83,0,0,0,.11-.15s0-.11.08-.17h25.38A2.53,2.53,0,0,0,334.66,44l12.69,22-.11.15Z"/>
</svg>