<svg xmlns="http://www.w3.org/2000/svg" width="285.833" height="117.751" viewBox="0 0 285.833 117.751"><path d="M282.967,240.944h-7.256V219.419h7.256a11.423,11.423,0,0,1,8.144,2.971,9.853,9.853,0,0,1,3.168,7.505,10.791,10.791,0,0,1-3.068,8,11.172,11.172,0,0,1-8.244,3.048m-.131-18.139h-2.869v14.786H282.9a6.647,6.647,0,0,0,5.31-2.092,8.254,8.254,0,0,0,1.815-5.6,6.742,6.742,0,0,0-7.191-7.09" transform="translate(-275.711 -151.365)" fill="#fff"/><path d="M328.412,240.944h-4.355l7.521-21.525h5.379l7.519,21.525h-4.485l-1.583-4.886H330Zm2.968-9.1-.3.926h6.268l-.3-.958q-1.121-3.447-1.831-5.8t-.873-2.954l-.131-.639q-.3,1.6-2.837,9.422" transform="translate(-302.751 -151.365)" fill="#fff"/><path d="M390.794,222.742h-5.64v18.2h-4.189v-18.2h-5.641V219.42h15.469Z" transform="translate(-331.424 -151.366)" fill="#fff"/><path d="M419.718,240.944h-4.354l7.521-21.525h5.376l7.521,21.525H431.3l-1.583-4.886H421.3Zm2.969-9.1-.3.926h6.267l-.3-.958q-1.122-3.447-1.831-5.8t-.874-2.954l-.131-.639q-.3,1.6-2.837,9.422" transform="translate(-353.818 -151.365)" fill="#fff"/><path d="M501.994,234.707a5.577,5.577,0,0,1-2.127,4.582A8.658,8.658,0,0,1,494.275,241a12.734,12.734,0,0,1-6.233-1.372V235.5a10.6,10.6,0,0,0,6.2,1.98,3.866,3.866,0,0,0,2.441-.717,2.321,2.321,0,0,0,.922-1.931,2.2,2.2,0,0,0-.231-1.022,2.539,2.539,0,0,0-.94-.895c-.473-.3-.835-.51-1.089-.639s-.775-.363-1.567-.7c-.22-.106-.385-.181-.494-.224q-1.222-.542-1.979-.972a11.882,11.882,0,0,1-1.65-1.166,4.666,4.666,0,0,1-1.335-1.757,5.789,5.789,0,0,1-.446-2.331,5.345,5.345,0,0,1,2.094-4.4,8.694,8.694,0,0,1,5.558-1.66,12.78,12.78,0,0,1,5.409,1.053v3.9a10.347,10.347,0,0,0-5.276-1.435,3.9,3.9,0,0,0-2.424.67,2.109,2.109,0,0,0-.475,2.944,2.087,2.087,0,0,0,.542.521,15.791,15.791,0,0,0,2.82,1.517q1.318.576,2.143,1.006a11.879,11.879,0,0,1,1.8,1.2,4.821,4.821,0,0,1,1.45,1.836,5.932,5.932,0,0,1,.482,2.438" transform="translate(-394.37 -151.163)" fill="#fff"/><path d="M544.3,239.558a10.835,10.835,0,0,1-5.738,1.277,11.454,11.454,0,0,1-8.163-3.017,10.456,10.456,0,0,1-3.216-8,10.6,10.6,0,0,1,3.183-7.968,11.281,11.281,0,0,1,8.2-3.082,11.469,11.469,0,0,1,5.706,1.182v3.928a11.145,11.145,0,0,0-5.541-1.406,6.938,6.938,0,0,0-5.063,2,8.046,8.046,0,0,0,0,10.683,7.261,7.261,0,0,0,5.294,1.981,8.879,8.879,0,0,0,5.343-1.6Z" transform="translate(-416.355 -151.001)" fill="#fff"/><rect width="4.156" height="21.525" transform="translate(132.493 68.054)" fill="#fff"/><path d="M611.083,240.944H597.822V219.419h13.128v3.289h-8.938v5.844h7.951v3.258h-7.95v5.844h9.07Z" transform="translate(-455.865 -151.366)" fill="#fff"/><path d="M642.472,240.944h-4.155V219.419h4.716l5.344,8.974q1.319,2.2,2.356,4.1t1.4,2.7l.364.8q-.266-2.65-.264-7.6v-8.974h4.189v21.525h-4.749L646.263,232q-1.286-2.108-2.325-4.04t-1.435-2.794l-.4-.894a66.927,66.927,0,0,1,.363,7.7Z" transform="translate(-478.514 -151.365)" fill="#fff"/><path d="M705.879,239.558a10.835,10.835,0,0,1-5.738,1.277,11.457,11.457,0,0,1-8.163-3.017,10.45,10.45,0,0,1-3.217-8,10.6,10.6,0,0,1,3.184-7.968,11.283,11.283,0,0,1,8.2-3.082,11.462,11.462,0,0,1,5.705,1.182v3.928a11.144,11.144,0,0,0-5.54-1.406,6.934,6.934,0,0,0-5.062,2,8.046,8.046,0,0,0,0,10.683,7.257,7.257,0,0,0,5.293,1.981,8.881,8.881,0,0,0,5.344-1.6Z" transform="translate(-506.727 -151.001)" fill="#fff"/><path d="M750.59,240.944H737.33V219.419h13.128v3.289h-8.94v5.844h7.949v3.258h-7.949v5.844h9.07Z" transform="translate(-533.891 -151.366)" fill="#fff"/><path d="M811.509,117.239a2.031,2.031,0,0,0-1.171-.267l-10.164-17.6c.028-.042.061-.076.087-.119a2.042,2.042,0,0,0-3.475-2.147c-.022.034-.041.07-.061.1s-.038.089-.06.134H776.336a2.139,2.139,0,0,0-.153-.256l4.167-7.217a2.038,2.038,0,1,0,0-4.066L770.178,68.2c.029-.041.062-.077.087-.119a2.042,2.042,0,0,0-3.535-2.042c-.025.043-.038.09-.06.135H746.342a2.038,2.038,0,1,0-3.674,1.765,2.079,2.079,0,0,0,.152.264l-4.167,7.217a2.029,2.029,0,0,0-1.832,3.173l-4.168,7.217a2.03,2.03,0,0,0-1.832,3.172L726.655,96.2a2.038,2.038,0,1,0,0,4.065l10.164,17.6a1.32,1.32,0,0,0-.085.119,2.041,2.041,0,1,0,3.477,2.14c.02-.032.039-.065.057-.1s.038-.09.06-.135h20.328a2.173,2.173,0,0,0,.154.257l-4.167,7.218a2.038,2.038,0,1,0-.3,4.065,1.929,1.929,0,0,0,.3,0l10.164,17.605c-.027.041-.061.075-.086.119a2.042,2.042,0,0,0,3.534,2.042c.026-.044.039-.09.061-.134H790.65a2.039,2.039,0,1,0,3.68-1.756,1.931,1.931,0,0,0-.158-.272l4.168-7.219a2.029,2.029,0,0,0,1.831-3.173l4.167-7.218a2.029,2.029,0,0,0,1.832-3.172l4.167-7.217a2.038,2.038,0,0,0,1.169-3.8ZM767.475,68.824a2.023,2.023,0,0,0,1.172.267L778.811,86.7c-.027.04-.061.075-.086.119a2.034,2.034,0,0,0,.085,2.163L774.644,96.2a2,2,0,0,0-.3-.007l-10.164-17.6c.027-.041.061-.077.086-.12a2.042,2.042,0,0,0-3.537-2.042c-.025.043-.039.09-.061.134H740.341a2.159,2.159,0,0,0-.154-.256l4.167-7.218a2.037,2.037,0,0,0,1.917-1.007c.026-.044.039-.091.061-.135h20.328a2.031,2.031,0,0,0,.816.88m17.335,49.043c-.027.04-.061.075-.086.119a2.042,2.042,0,0,0,3.479,2.14c.02-.032.038-.065.056-.1s.039-.09.061-.135h9.657l4.829,8.363c-.028.041-.061.076-.087.12s-.039.09-.06.135H782.33a2.037,2.037,0,0,0-1.991-1.149l-10.161-17.6c.028-.041.062-.076.087-.119s.039-.09.061-.135h9.657Zm-2.78-8.364h9.95l4.974,8.618h-8.624a2.038,2.038,0,0,0-1.99-1.149Zm16.608,28.255a2.039,2.039,0,0,0-1.917,1.009c-.025.043-.038.091-.06.134H776.333a2.037,2.037,0,0,0-1.989-1.148l-10.165-17.605c.029-.041.062-.076.087-.119a2.038,2.038,0,0,0-.085-2.163l4.167-7.218a1.989,1.989,0,0,0,.3.006l10.164,17.6c-.028.041-.061.077-.086.12a2.042,2.042,0,0,0,3.479,2.139c.019-.032.038-.065.055-.1s.04-.09.062-.135h20.328a2.118,2.118,0,0,0,.153.257Zm-52.3-30.027a2.035,2.035,0,0,0-1.99-1.148l-4.311-7.468h8.623a2.04,2.04,0,0,0,1.991,1.148l4.311,7.468Zm5.841-8.363c.029-.041.062-.076.087-.119a2.042,2.042,0,0,0-3.474-2.147c-.022.034-.041.07-.06.1s-.039.089-.061.134h-9.658l-4.828-8.363c.027-.041.061-.075.085-.119a2.036,2.036,0,0,0-.085-2.164l4.167-7.218a2.035,2.035,0,0,0,1.917-1.009c.025-.043.039-.09.061-.135h20.328a2.04,2.04,0,0,0,1.991,1.15l10.163,17.6c-.027.042-.061.077-.086.121a2.035,2.035,0,0,0,.085,2.164l-4.17,7.218a2.036,2.036,0,0,0-1.917,1.007c-.025.045-.039.091-.061.135h-9.656ZM728.341,97.34a1.956,1.956,0,0,0-.153-.256l4.167-7.217a2.067,2.067,0,0,0,.3,0l4.312,7.468ZM766.657,109.5a1.932,1.932,0,0,0,.154.257l-4.167,7.218a2.059,2.059,0,0,0-.3-.007l-4.312-7.468Zm3.678-1.773a2,2,0,0,0-.154-.256l4.167-7.219a2.075,2.075,0,0,0,.3.007l4.311,7.468Zm-9.605,10.256c-.026.044-.039.089-.061.134H740.341a2.04,2.04,0,0,0-1.99-1.149l-10.164-17.6c.028-.041.061-.076.086-.119s.04-.09.061-.134h9.656l4.828,8.363c-.027.041-.061.076-.086.119a2.042,2.042,0,1,0,3.478,2.14c.019-.032.039-.064.057-.1s.038-.09.06-.135h9.657l4.829,8.365C760.787,117.908,760.753,117.944,760.73,117.987Zm1.62,3.051a2.053,2.053,0,0,0,.3.005l10.165,17.6c-.028.041-.062.077-.087.12a2.042,2.042,0,0,0,3.474,2.147c.021-.034.041-.069.06-.1s.039-.089.061-.134h20.328a2.145,2.145,0,0,0,.154.256l-4.167,7.217a2.037,2.037,0,0,0-1.917,1.009c-.025.043-.039.09-.061.134H770.331a2.038,2.038,0,0,0-1.991-1.149l-10.163-17.6c.028-.041.061-.077.086-.12a2.036,2.036,0,0,0-.085-2.163Zm42.288,6.331a2.063,2.063,0,0,0-.3-.006l-4.311-7.469h8.622a1.831,1.831,0,0,0,.154.257Zm4.083-9.382c-.025.044-.04.089-.061.134H799l-6-10.39h-12l-4.828-8.364c.027-.041.061-.076.085-.119s.039-.09.061-.134h20.328a2.038,2.038,0,0,0,1.99,1.148l10.164,17.605c-.027.04-.061.075-.085.119" transform="translate(-526.695 -65.008)" fill="#5933cc"/><path d="M503.361,297.981a5.573,5.573,0,0,1-2.127,4.582,8.651,8.651,0,0,1-5.59,1.708,12.724,12.724,0,0,1-6.234-1.372v-4.12a10.61,10.61,0,0,0,6.2,1.98,3.871,3.871,0,0,0,2.441-.717,2.323,2.323,0,0,0,.922-1.932,2.209,2.209,0,0,0-.231-1.021,2.574,2.574,0,0,0-.94-.9c-.473-.3-.835-.51-1.089-.638s-.774-.362-1.565-.7q-.331-.159-.495-.224-1.222-.541-1.979-.973a11.722,11.722,0,0,1-1.649-1.165,4.644,4.644,0,0,1-1.336-1.757,5.777,5.777,0,0,1-.446-2.33A5.346,5.346,0,0,1,491.334,284a8.7,8.7,0,0,1,5.558-1.66,12.761,12.761,0,0,1,5.409,1.053v3.9a10.36,10.36,0,0,0-5.276-1.434,3.9,3.9,0,0,0-2.424.67,2.11,2.11,0,0,0,.067,3.466,15.815,15.815,0,0,0,2.819,1.517q1.319.574,2.144,1.005a11.972,11.972,0,0,1,1.8,1.2,4.821,4.821,0,0,1,1.451,1.836,5.924,5.924,0,0,1,.481,2.437" transform="translate(-395.135 -186.553)" fill="#3f6"/><path d="M547.649,295.948q0,4.183-2.326,6.37a10.367,10.367,0,0,1-12.7.033,7.937,7.937,0,0,1-2.356-6.18V282.7h4.156V296.14a4.518,4.518,0,0,0,1.253,3.561,4.767,4.767,0,0,0,3.265,1.1q4.552,0,4.552-4.822V282.7h4.156Z" transform="translate(-418.083 -186.755)" fill="#3f6"/><path d="M584.116,304.217H579.96l1.78-21.524h4.75l3.035,7.825q.792,1.98,1.486,3.944t.989,2.92l.3.991q1.025-3.321,2.837-7.856l3.1-7.825h4.75l2.177,21.524H601l-.791-8.4-.594-7.537q-1.187,3.289-2.836,7.537l-3.1,8.08h-2.836l-3.035-8.08-2.605-7.441q0,1.565-.429,7.441Z" transform="translate(-445.875 -186.753)" fill="#3f6"/><path d="M650.949,304.217h-4.155l1.781-21.524h4.749l3.035,7.825q.793,1.98,1.486,3.944t.989,2.92l.3.991q1.025-3.321,2.837-7.856l3.1-7.825h4.75l2.177,21.524h-4.156l-.791-8.4-.6-7.537q-1.185,3.289-2.836,7.537l-3.1,8.08h-2.837l-3.035-8.08-2.605-7.441q0,1.565-.429,7.441Z" transform="translate(-483.255 -186.753)" fill="#3f6"/><rect width="4.156" height="21.524" transform="translate(193.652 95.94)" fill="#3f6"/><path d="M748.778,286.016h-5.639v18.2H738.95v-18.2h-5.641V282.7h15.469Z" transform="translate(-531.642 -186.756)" fill="#3f6"/><path d="M802.616,117.232a2.039,2.039,0,0,0-1.174-.268l-10.163-17.6c.028-.042.061-.076.086-.119a2.042,2.042,0,1,0-3.474-2.147c-.021.034-.041.07-.061.1s-.038.089-.06.134H767.442a2.037,2.037,0,0,0-.154-.256l4.167-7.217a2.038,2.038,0,1,0,0-4.066l-10.164-17.6c.028-.041.061-.077.086-.119a2.042,2.042,0,0,0-3.534-2.042c-.025.043-.039.09-.061.135H737.451a2.038,2.038,0,1,0-3.522,2.029l-4.174,7.217a2.029,2.029,0,0,0-1.831,3.173L723.755,85.8a2.03,2.03,0,0,0-1.831,3.172l-4.168,7.219a2.038,2.038,0,1,0,0,4.065l10.164,17.6c-.028.04-.061.075-.086.119a2.042,2.042,0,0,0,3.479,2.14c.02-.032.038-.065.056-.1s.039-.09.061-.135h20.328a2.023,2.023,0,0,0,.154.256l-4.167,7.218a2.038,2.038,0,1,0-.3,4.065,1.928,1.928,0,0,0,.3,0l10.164,17.605c-.028.041-.062.075-.086.119a2.042,2.042,0,0,0,3.534,2.042c.025-.044.039-.09.061-.134h20.328a2.038,2.038,0,0,0,3.676-1.762,1.894,1.894,0,0,0-.153-.267l4.168-7.219a2.029,2.029,0,0,0,1.831-3.173l4.167-7.218a2.029,2.029,0,0,0,1.832-3.172l4.167-7.217a2.038,2.038,0,0,0,1.169-3.8ZM758.581,68.816a2.023,2.023,0,0,0,1.174.267l10.163,17.606a1.47,1.47,0,0,0-.086.119,2.034,2.034,0,0,0,.085,2.163l-4.167,7.219a1.992,1.992,0,0,0-.3-.007l-10.165-17.6c.027-.041.061-.077.086-.12a2.042,2.042,0,0,0-3.537-2.042c-.026.043-.039.09-.061.134H731.445a2.008,2.008,0,0,0-.154-.256l4.167-7.218a2.036,2.036,0,0,0,1.917-1.007c.026-.044.039-.091.061-.135h20.328a2.031,2.031,0,0,0,.817.88m17.336,49.043c-.028.04-.061.075-.086.119a2.042,2.042,0,0,0,3.478,2.14c.02-.032.038-.065.057-.1s.038-.09.061-.135h9.657l4.828,8.363c-.028.041-.061.076-.086.12s-.039.09-.061.135H773.439a2.038,2.038,0,0,0-1.991-1.149l-10.163-17.6c.029-.041.061-.076.086-.119s.039-.09.06-.135h9.658Zm-2.782-8.364h9.951l4.975,8.618h-8.623a2.039,2.039,0,0,0-1.99-1.149Zm16.609,28.255a2.038,2.038,0,0,0-1.917,1.009c-.025.043-.038.091-.06.134H767.44a2.037,2.037,0,0,0-1.989-1.148l-10.164-17.605c.027-.041.061-.076.086-.119a2.039,2.039,0,0,0-.085-2.163l4.167-7.218a2,2,0,0,0,.3.006l10.163,17.6c-.027.041-.061.077-.086.12a2.042,2.042,0,0,0,3.478,2.139c.019-.032.038-.065.056-.1s.039-.09.061-.135h20.328a2.013,2.013,0,0,0,.154.256Zm-52.3-30.027a2.036,2.036,0,0,0-1.99-1.148l-4.311-7.468h8.623a2.038,2.038,0,0,0,1.991,1.148l4.311,7.468Zm5.842-8.363c.028-.041.061-.076.087-.119a2.043,2.043,0,0,0-3.5-2.106c-.013.021-.025.042-.036.063-.025.042-.039.089-.061.134h-9.657l-4.828-8.363c.028-.041.061-.075.086-.119a2.033,2.033,0,0,0-.085-2.164l4.167-7.218a2.033,2.033,0,0,0,1.916-1.009c.025-.043.039-.09.061-.135h20.328a2.038,2.038,0,0,0,1.991,1.15l10.164,17.6c-.027.042-.061.077-.086.121a2.034,2.034,0,0,0,.085,2.164l-4.168,7.218a2.036,2.036,0,0,0-1.917,1.007c-.025.045-.039.091-.06.135h-9.657Zm-23.839-2.028a2.139,2.139,0,0,0-.154-.256l4.167-7.217a2.054,2.054,0,0,0,.3,0l4.312,7.468ZM757.763,109.5a2.088,2.088,0,0,0,.154.257l-4.167,7.218a2.063,2.063,0,0,0-.3-.007l-4.312-7.468Zm3.678-1.773a1.906,1.906,0,0,0-.154-.256l4.168-7.219a2.062,2.062,0,0,0,.3.007l4.312,7.468Zm-9.608,10.256c-.025.044-.038.089-.06.134H731.445a2.038,2.038,0,0,0-1.99-1.149l-10.163-17.6c.027-.041.061-.076.085-.119s.039-.09.061-.134H729.1l4.828,8.363c-.027.041-.061.076-.086.119a2.042,2.042,0,0,0,3.534,2.043c.026-.044.039-.09.061-.135h9.657l4.828,8.365c-.024.04-.057.075-.085.119m1.621,3.051a2.059,2.059,0,0,0,.3.005l10.164,17.6c-.028.041-.062.077-.086.12a2.042,2.042,0,1,0,3.474,2.147c.022-.034.041-.069.061-.1s.039-.089.061-.134h20.328a2.045,2.045,0,0,0,.154.256l-4.162,7.22a2.037,2.037,0,0,0-1.917,1.009c-.025.044-.039.089-.06.134H761.44a2.038,2.038,0,0,0-1.99-1.149l-10.163-17.6c.028-.041.061-.076.085-.119a2.033,2.033,0,0,0-.085-2.164Zm42.288,6.331a2.057,2.057,0,0,0-.3-.006l-4.311-7.469h8.623a1.993,1.993,0,0,0,.154.256Zm4.083-9.382c-.025.044-.038.089-.06.134h-9.657l-6-10.39H772.113l-4.829-8.364c.028-.041.061-.076.086-.119s.039-.09.061-.134h20.328a2.038,2.038,0,0,0,1.99,1.148l10.164,17.605c-.028.04-.061.075-.087.119Z" transform="translate(-521.718 -65)" fill="#3f6"/></svg>