<svg width="41" height="41" viewBox="0 0 41 41" fill="none" xmlns="http://www.w3.org/2000/svg">
<g filter="url(#filter0_d)">
<path d="M34.6379 19.3249C35.9425 11.2562 30.4464 3.65961 22.3621 2.35759C14.2777 1.05557 6.66659 6.54111 5.36206 14.6099C4.05753 22.6787 9.55363 30.2752 17.6379 31.5772C25.7223 32.8793 33.3334 27.3937 34.6379 19.3249Z" fill="#D7C4A3"/>
<path d="M20.8162 32.238C11.9084 32.238 4.69727 25.4064 4.69727 16.9674C4.69727 8.52837 11.9084 1.69678 20.8162 1.69678C29.7241 1.69678 36.9352 8.52837 36.9352 16.9674C36.9352 25.4064 29.6393 32.238 20.8162 32.238ZM20.8162 4.1883C13.3506 4.1883 7.24237 9.97506 7.24237 17.0478C7.24237 24.1205 13.3506 29.9072 20.8162 29.9072C28.2819 29.9072 34.3901 24.1205 34.3901 17.0478C34.3901 9.97506 28.2819 4.1883 20.8162 4.1883Z" fill="#F6F6F6"/>
</g>
<path d="M27.4 17C27.4 18.6974 26.7257 20.3253 25.5255 21.5255C24.3253 22.7257 22.6974 23.4 21 23.4C19.3026 23.4 17.6747 22.7257 16.4745 21.5255C15.2743 20.3253 14.6 18.6974 14.6 17C14.6 15.3026 15.2743 13.6747 16.4745 12.4745C17.6747 11.2743 19.3026 10.6 21 10.6C21.608 10.6 22.2 10.688 22.76 10.848L24.016 9.592C23.088 9.208 22.072 9 21 9C19.9494 9 18.9091 9.20693 17.9385 9.60896C16.9679 10.011 16.086 10.6003 15.3431 11.3431C13.8429 12.8434 13 14.8783 13 17C13 19.1217 13.8429 21.1566 15.3431 22.6569C16.086 23.3997 16.9679 23.989 17.9385 24.391C18.9091 24.7931 19.9494 25 21 25C23.1217 25 25.1566 24.1571 26.6569 22.6569C28.1571 21.1566 29 19.1217 29 17H27.4ZM17.728 15.464L16.6 16.6L20.2 20.2L28.2 12.2L27.072 11.064L20.2 17.936L17.728 15.464Z" fill="white"/>
<defs>
<filter id="filter0_d" x="0.697266" y="1.69678" width="40.238" height="38.5412" filterUnits="userSpaceOnUse" color-interpolation-filters="sRGB">
<feFlood flood-opacity="0" result="BackgroundImageFix"/>
<feColorMatrix in="SourceAlpha" type="matrix" values="0 0 0 0 0 0 0 0 0 0 0 0 0 0 0 0 0 0 127 0"/>
<feOffset dy="4"/>
<feGaussianBlur stdDeviation="2"/>
<feColorMatrix type="matrix" values="0 0 0 0 0 0 0 0 0 0 0 0 0 0 0 0 0 0 0.25 0"/>
<feBlend mode="normal" in2="BackgroundImageFix" result="effect1_dropShadow"/>
<feBlend mode="normal" in="SourceGraphic" in2="effect1_dropShadow" result="shape"/>
</filter>
</defs>
</svg>
