<svg width="430" height="430" viewBox="0 0 430 74" fill="none" xmlns="http://www.w3.org/2000/svg">
    <path d="M412.6 20.2L399.2 20.5L415.7 36.9L392.5 60.1L369.4 36.9L393.1 13.2L399.3 6.7L392.5 0L355.6 36.9L392.5 73.9L429.5 36.9L412.6 20.2Z"
          fill="black"/>
    <path d="M0 43.4H9.1C9.8 47.7 13.9 49.5999 18.6 49.5999C22.5 49.5999 25.7 48.5999 25.7 45.0999C25.7 42.1999 23.1 41.1999 20.2 40.5999L12 38.4C6.3 37 1 33.8 1 25.5C1 16.9 7.9 12.7 16.7 12.7C26 12.7 32.5 16.9 33.3 26.6H24.1C23.4 22.8 20.2 21.2 16.1 21.2C13.4 21.2 9.9 22.2 9.9 25.7C9.9 28.3 12.4 29.1 14.8 29.7L22.8 31.7C30.7 33.7 34.6 37.0999 34.6 45.2999C34.5 53.8999 27.9 58.0999 18.5 58.0999C8.5 58.0999 0.5 53.2999 0 43.4Z"
          fill="black"/>
    <path d="M51.5 31.5001L67.7 13.9001H78.4L62.8 30.9001L80.8 57.3001H70.5L56.9 37.3001L51.5 43.2001V57.3001H42.7V1.1001H51.5V31.5001Z"
          fill="black"/>
    <path d="M102.1 67.1999C100.8 70.7999 97.7 72.6999 92.5 72.6999H88V64.1999H89.8C94.1 64.1999 94.3 63.3999 95.7 59.7999L96.9 56.5999L81.3 13.8999H90.5L101.3 44.6999L112.1 13.8999H121.3L102.1 67.1999Z"
          fill="black"/>
    <path d="M135.6 57.2001H126.8V1.1001H135.6V17.7001C136.9 15.2001 141.1 12.7001 145.7 12.7001C153.2 12.7001 162.9 17.3001 162.9 30.7001V57.2001H154.1V30.9001C154.1 24.3001 150.3 21.3001 144.9 21.3001C139.5 21.3001 135.7 24.3001 135.7 30.9001V57.2001H135.6Z"
          fill="black"/>
    <path d="M196.1 37.7001C192.5 38.0001 190 38.3001 187.9 38.7001C186.1 39.1001 184.6 39.5001 183 40.4001C181.9 41.1001 180.9 42.2001 180.9 44.4001C180.9 47.9001 183.6 49.5001 188.3 49.5001C193.3 49.5001 199.8 47.9001 199.8 39.8001V37.4001L199.7 29.5001C199.3 23.9001 195.6 21.1001 190.5 21.1001C186.1 21.1001 182.9 23.1001 181.7 27.2001H172.7C174.2 15.7001 183.5 12.6001 190.5 12.6001C198.1 12.6001 208.6 16.3001 208.6 30.6001V57.1001H199.8V53.0001C197 56.4001 192.6 58.0001 186.9 58.0001C179 58.0001 172.1 54.1001 172.1 45.1001C172.1 40.1001 174.3 34.3001 181.5 32.1001C186.7 30.5001 191.5 30.2001 196.1 29.8001V37.7001Z"
          fill="black"/>
    <path d="M236.4 58.0999C228.8 58.0999 218.3 54.3999 218.3 40.0999V30.7C218.3 16.4 228.8 12.7 236.4 12.7C243.5 12.7 253.3 16 254.4 28.3H245.4C244.6 23.5 241.1 21.2 236.4 21.2C230.9 21.2 227.2 24.3 227.2 30.9V40C227.2 46.5999 231 49.7 236.4 49.7C241.1 49.7 244.6 47.2999 245.5 42.5999H254.4C253.3 54.7999 243.6 58.0999 236.4 58.0999Z"
          fill="black"/>
    <path d="M286.2 34.0001L302 57.2001H291.8L280.4 40.4001L286.2 34.0001ZM278 37.5001L272.8 43.2001V57.3001H264V1.1001H272.8V31.6001L289 13.9001H299.7L284.3 30.7001L278 37.5001Z"
          fill="black"/>
    <path d="M304.6 43.4001H313.7C314.4 47.7001 318.5 49.6 323.2 49.6C327.1 49.6 330.3 48.6 330.3 45.1C330.3 42.2 327.7 41.2 324.8 40.6L316.6 38.5C310.9 37.1 305.6 33.9 305.6 25.6C305.6 17 312.5 12.8 321.3 12.8C330.6 12.8 337.1 17 337.9 26.7H328.7C328 22.9 324.8 21.3 320.7 21.3C318 21.3 314.5 22.3 314.5 25.8C314.5 28.4 317 29.2 319.4 29.8L327.4 31.8C335.3 33.8 339.2 37.2001 339.2 45.4001C339.1 54.0001 332.5 58.2001 323.1 58.2001C313.1 58.1001 305.1 53.3 304.6 43.4001Z"
          fill="black"/>
</svg>
